<svg version="1" xmlns="http://www.w3.org/2000/svg" width="2048" height="2048" viewBox="0 0 1536.000000 1536.000000"><path d="M826.8 252.5c-.2.1-5 .5-10.8.9-10.2.6-13.2.9-23.5 2.1-10.6 1.2-13.1 1.5-15.5 2-1.4.3-4.1.7-6 1-40.4 6.3-92 21.7-130.5 39-3.3 1.4-7.6 3.3-9.5 4.2-9.2 4-31.9 15.8-44 22.8-25.1 14.4-43.8 27.2-66 44.9-16.3 13-17.1 13.7-33.1 29.6-32.9 32.4-53.9 62.1-70.2 99-4.1 9.3-10.9 30.7-12.1 38-.3 1.9-.8 4.6-1.1 6-3.4 15.6-3.9 46.8-1 61.9.2 1 .6 3.4.9 5.2 2.9 18.6 11.9 38.1 23.4 51 5.4 6.2 17.6 15 26.5 19.4 9.5 4.5 20.7 8.8 20.7 7.8 0-.3.6-.1 1.3.4 1 .9 5.7 2 16.2 3.8 2.1.3 9.9 1.4 15 2 1.7.2 9 .7 16.3 1.1 15.2.8 15.1.9 10.6-8-3.8-7.4-8.2-18.9-9.5-24.4-.6-2.6-1.3-5.6-1.5-6.7-3.4-14.3-4.7-43.9-3-69.5.7-12.4 1-14.8 3.2-29.5.4-2.8 1.8-10.5 2.9-16.8 3.4-18.4 12.9-46.3 22.2-65.4 28.2-58 73.2-101 136.2-130 6.3-2.9 11.6-5.1 11.7-5 .2.1-.8 5.3-2.1 11.4-1.3 6.1-2.7 12.2-2.9 13.5-.3 1.3-.7 3.2-1 4.3-1.2 5.3-7.8 35.5-8.6 39.5-.5 2.5-1.2 5.6-1.5 7-.3 1.4-.8 3.6-1.1 5-.3 1.4-1 4.5-1.5 7-.6 2.5-1.3 5.6-1.5 7-.3 1.4-1.4 6.3-2.4 11-1.8 7.6-12.2 55.5-13.4 61.2-.3 1.3-3.9 17.7-8 36.5-4.2 18.8-7.7 35.2-8 36.5-.2 1.3-2.1 9.7-4.1 18.8-2 9.1-4.7 21.7-6.1 28-1.3 6.3-2.9 13.3-3.4 15.5-.8 3.1-7.7 34.5-10.5 48-.3 1.1-.7 3.1-1 4.5-.3 1.4-.7 3.4-.9 4.5-.3 1.1-1 4.2-1.6 7-.6 2.7-1.3 5.9-1.6 7-.2 1.1-1.7 8.1-3.3 15.5-1.6 7.4-3.2 14.6-3.5 16-.2 1.4-3 14-6.1 28-3.1 14-6.3 28.6-7.1 32.5-.8 3.8-1.9 8.6-2.4 10.5-.5 1.9-1.1 4.8-1.4 6.5-.3 1.6-2.6 12.2-5.1 23.5-2.5 11.3-4.8 21.6-5 23-.3 1.4-2 9.7-4 18.5-4.2 18.6-13.2 59.8-13.9 63.5-.3 1.4-.7 3.4-1 4.5-1.9 8.6-5.6 25.5-6 27.5-.2 1.4-1.1 5.4-2 9-.8 3.6-1.8 8.1-2.1 10-.3 1.9-1.2 6-2 9s-1.7 7-2 8.8c-.3 1.8-3 14.3-6 27.9-3.1 13.6-5.8 26.1-6.1 27.8-.2 1.6-.7 3.8-1 4.7-.3.9-.7 2.5-.9 3.5-.8 3.8-5.7 26.9-6.1 28.6-.2.9-.6 2.5-.8 3.5-.8 3.4-12.6 57.4-13 59.5-.2 1.2-1.1 5.2-2 8.8-.8 3.7-1.7 7.8-2 9-.2 1.3-.9 4.4-1.5 6.9-.5 2.5-1.2 5.6-1.4 7-.3 1.4-1 4.3-1.5 6.5-.6 2.2-1.3 5.3-1.6 7-.2 1.6-1.4 7-2.5 11.9l-2 8.8 2.4 2.4c1.3 1.3 3.2 2.4 4.2 2.4 1.4 0 65-41.6 67.3-44 .3-.3 5.9-4 12.4-8.4 11.9-7.8 15.6-9.1 18-6.5 1.2 1.3 11 17.2 15.4 24.9 1.1 1.9 5.5 9.3 9.9 16.5 11.4 18.7 30.5 50.3 32.5 53.8 2 3.6 3.5 4.7 6.4 4.7 4.2 0 5.6-2.3 8-14.1 1.3-6.3 2.6-12.3 2.8-13.4.3-1.1 1.8-8.5 3.5-16.5 1.6-8 3.4-16.5 4-19 .5-2.5 1.9-8.8 3-14 1.1-5.2 4.5-21.2 7.6-35.5 3-14.3 5.7-26.9 5.9-28 .3-1.1.9-4 1.5-6.5.5-2.5 1.2-5.6 1.4-7 .3-1.4 1-4.4 1.6-6.8.7-2.4 1.4-5.5 1.6-7 .2-1.5.6-3.6.9-4.7.2-1.1 1.1-5.2 2-9 .8-3.9 3.3-15.6 5.6-26 2.3-10.5 5.2-24 6.5-30 1.3-6.1 3.6-16.4 5-23 1.5-6.6 2.9-13.1 3.1-14.5.3-1.3 1.2-5.6 2-9.5.9-3.8 1.7-7.8 1.9-8.8.2-1 .6-2.6.9-3.5.3-.9.8-3.3 1.1-5.2.3-1.9 1.2-6.2 2-9.5 1.3-5.5 5.7-25.7 6.9-31.5.3-1.4.7-3.4.9-4.5.3-1.1 2.1-9.7 4.2-19 2-9.4 3.8-17.9 4.1-19 .3-1.1.9-4 1.4-6.5.5-2.5 1.1-5.4 1.4-6.5 1.7-7.4 5.6-25.8 6-27.9.3-1.5.7-3.4 1-4.4.3-.9.8-2.9 1.1-4.5.6-3 .5-2.8 4.1-19.2 1.4-6.6 2.7-12.7 2.9-13.6.2-.9 1.3-6.1 2.5-11.5 1.2-5.5 2.4-11 2.6-12.4.3-1.4 1.4-6.6 2.6-11.5 1.9-8.3 2.9-13 4.2-19.5.3-1.4.8-3.6 1.1-5 .3-1.4.7-3.4.9-4.5.2-1.1 1.1-5 2-8.6.8-3.7 1.7-7.8 2-9 1.9-9.9 3.9-18.6 4.7-20 .5-1 2.7-2 5.1-2.4 2.4-.4 5.2-.9 6.3-1.1 1.1-.2 4-.7 6.5-1 2.5-.3 5.6-.7 7-1 4-.7 21.9-.6 28.5.1 34.9 3.9 56.2 25.2 61.2 61.3 1 7.1 1 39.4 0 48.2-1.2 11.1-2.6 20.7-3.2 23-.2.8-.7 3.5-1 6-.6 4.4-1.9 11-3 16-.3 1.4-1 4.5-1.5 7s-2.5 11.2-4.5 19.5c-2 8.2-3.8 15.7-4 16.5-.3 1.5-5.3 20.3-7.9 30-.8 3-4 14.7-7.1 26-11.2 40.4-12.6 45.8-18 67.5-3 12.1-5.6 23.1-5.9 24.5-.2 1.4-1.1 5.9-2 10-.8 4.1-2 10.6-2.6 14.5-.6 3.8-1.3 8.1-1.5 9.5-1.9 10.3-2.5 36-1.2 46.7 3.5 29.1 20.3 49.6 48.4 59.2 4.8 1.6 9.9 3.2 11.3 3.4 1.4.3 4.1.8 6 1.1 1.9.3 4.9.9 6.5 1.2 4.5 1 44.4 1.3 50.1.4 2.7-.4 7.8-1 11.4-1.4 3.6-.3 7.9-.8 9.5-1.1 1.7-.3 5.9-1 9.5-1.6 5.3-.9 17.5-3.1 28.5-5.3 1.1-.2 5.2-1.2 9-2.1 3.9-.9 7.9-1.8 9-2.1 4.7-.9 23.8-6.4 24.3-6.9.3-.3-.2-.5-1.1-.5-.9 0-3.3-1-5.4-2.2-2.1-1.2-4.9-2.7-6.3-3.4-3.9-2-13.3-10.8-17.8-16.6-9.4-12.3-16.1-29.2-18-45.8-1.1-9.8-.5-31.2 1.3-41 .2-1.4.9-5.4 1.5-9 1-6.6 1.5-9.5 2.5-14 .3-1.4.9-4.3 1.4-6.5 2-9.4 5.2-22.9 5.6-23.5.2-.3.6-1.9.9-3.4.6-3.3 6.8-26.5 10.3-38.6 1.3-4.7 2.6-9.4 2.8-10.5.3-1.1 1.1-4.3 2-7 1.4-4.9 9.3-33.5 10-36.5.2-.8 1.3-5.3 2.5-10s2.3-9.2 2.5-10c.2-.8 2.2-9.2 4.4-18.5 2.1-9.4 4.2-18.7 4.5-20.9.4-2.1.8-4.1 1-4.5.2-.3.7-2.6 1-5.1.3-2.5.8-5.6 1.1-7 .3-1.4.9-5.2 1.5-8.5.8-5.5 1.3-8.5 2.5-18.5 2.2-17.9 2.3-42.3.1-61.5-2.8-23.7-14-48.3-29.2-64.1-11.9-12.2-32.5-24.6-49.7-29.9-4.6-1.4-5.5-2-4.6-3.1.6-.8 1.6-1.4 2-1.4.5 0 6.2-3.5 12.6-7.7 10.5-6.9 14.7-10 27.8-20.6 13.5-10.9 34.1-33.1 46.4-50.1 21.4-29.7 37.9-67.1 42.7-97 .3-2.1.8-4.8 1-6 1.8-8.8 2.4-34.3 1.2-46.6-1.9-18.7-7.8-38.8-16.5-56.5-22.7-45.8-64.1-79.5-124.3-101.3-24.5-8.9-63.9-17.1-94-19.7-3.6-.3-9.2-.8-12.5-1.1-6.1-.6-58.1-1.4-58.7-.9zm75.4 61c38.2 8 68.1 29.8 83.7 61.1 6 12.2 8.1 18.3 11.7 33.9 3.7 16.4 3.6 48.2-.1 65.5-.1.3-.5 2.5-.9 5-5.4 31-23.4 73.5-41.9 98.8-10.8 14.6-25.6 31.1-35.2 39.2-12.8 10.6-25.5 19-37.5 24.8-10.9 5.1-16 7.2-16 6.5 0-.3-.6-.1-1.2.5-.7.6-3.1 1.3-5.3 1.7-2.2.4-4.4 1-5 1.4-.5.3-1.2.6-1.5.6-.5.1-8.4 1.5-11.1 2-8.4 1.6-30.3 2.4-31.5 1.2-.3-.3.4-5 1.6-10.4 1.2-5.4 2.9-12.7 3.6-16.3.8-3.6 1.8-8.3 2.3-10.5.5-2.2 1.9-8.5 3.1-14 1.2-5.5 2.4-10.9 2.6-12 .3-1.1.7-3.1 1-4.5 1-4.8 6.5-29.5 7.9-35.5 1.4-6 6.2-28.1 7-32.4.2-1.2.6-3 .9-3.9.3-.9.7-2.8 1-4.2.2-1.4 1.1-5.4 2-9 .8-3.6 1.7-7.6 2-9 .2-1.4 2.1-9.9 4.1-19 2-9.1 3.9-17.6 4.1-18.9.3-1.2 1.2-5.3 2-9 .9-3.6 1.8-7.6 2-8.7.2-1.2 1.8-8.1 3.4-15.4 1.6-7.3 3.2-14.2 3.4-15.4.2-1.1 2.8-12.7 5.6-25.6 2.9-12.9 5.4-24.6 5.7-26 .2-1.4 2.4-11.3 4.9-22 2.4-10.7 4.4-20.3 4.4-21.3 0-1.7.5-1.8 4.9-1.3 2.7.3 8.2 1.3 12.3 2.1z"/></svg>