<?xml version="1.0" standalone="no"?>
<!DOCTYPE svg PUBLIC "-//W3C//DTD SVG 20010904//EN"
 "http://www.w3.org/TR/2001/REC-SVG-20010904/DTD/svg10.dtd">
<svg version="1.0" xmlns="http://www.w3.org/2000/svg"
 width="16.000000pt" height="16.000000pt" viewBox="0 0 16.000000 16.000000"
 preserveAspectRatio="xMidYMid meet">
<metadata>
Created by potrace 1.11, written by Peter Selinger 2001-2013
</metadata>
<g transform="translate(0.000000,16.000000) scale(0.002286,-0.002286)"
fill="#000000" stroke="none">
<path d="M3335 6930 c-606 -28 -1179 -212 -1700 -545 -335 -214 -689 -552
-931 -890 -383 -533 -604 -1175 -633 -1832 -31 -736 150 -1412 544 -2028 214
-335 552 -689 890 -931 533 -383 1175 -604 1833 -633 735 -31 1411 150 2027
544 335 214 689 552 931 890 383 533 604 1175 633 1833 31 735 -150 1411 -544
2027 -214 335 -552 689 -890 931 -516 371 -1175 604 -1780 629 -66 3 -145 7
-175 8 -30 2 -122 0 -205 -3z m1257 -3307 l1088 -1088 -122 -122 -123 -123
-967 967 -968 968 -968 -968 -967 -967 -123 122 -122 123 1087 1087 c599 599
1090 1088 1093 1088 3 0 494 -489 1092 -1087z m-2132 479 l0 -177 -250 -250
-250 -250 0 428 0 427 250 0 250 0 0 -178z"/>
</g>
</svg>
