<?xml version="1.0" encoding="utf-8"?>
<!-- Generator: Adobe Illustrator 21.1.0, SVG Export Plug-In . SVG Version: 6.00 Build 0)  -->
<svg version="1.1" id="Capa_1" xmlns="http://www.w3.org/2000/svg" xmlns:xlink="http://www.w3.org/1999/xlink" x="0px" y="0px"
	 viewBox="0 0 482.9 482.9" style="enable-background:new 0 0 482.9 482.9;" xml:space="preserve">
<style type="text/css">
	.st0{fill:#2196F3;}
	.st1{fill:#FFFFFF;}
</style>
<rect x="0.3" y="0" class="st0" width="482.9" height="482.9"/>
<g>
	<g>
		<path class="st1" d="M377.9,335.5v0.2c0,3-7.2,110.5-11.4,147.2h-250c-4-32.6-10.9-144.3-10.9-147.3v-0.2c0.1-0.5,0.1-1.1,0.1-1.7
			c0.4-13.1,1.3-43.8,30-53.6c0.2-0.1,0.4-0.1,0.7-0.2c24.4-6.2,58.2-27.7,70.1-35.5c-4.6-2.9-8.8-6.5-12.5-10.7
			c-25.5-28.8-21.3-78.1-20.8-82.8c1.7-35.6,18.6-52.5,32.5-60.4c13.8-7.9,28.3-9.1,35.7-9.1h1.1c13.4,0.3,25.4,3.4,35.7,9.3
			c13.8,7.9,30.5,24.8,32.1,60.1c0.5,4.7,4.7,54-20.8,82.8c-3.7,4.2-7.8,7.7-12.3,10.5c8.4,5.7,43.7,29.1,70,35.8
			c0.2,0.1,0.5,0.1,0.7,0.2c28.8,9.8,29.6,40.5,30,53.6C377.8,334.4,377.9,334.9,377.9,335.5z"/>
	</g>
</g>
</svg>
