<svg xmlns="http://www.w3.org/2000/svg" viewBox="0 0 1602.98 440.4"><title>Ativo 5</title><g id="Camada_2" data-name="Camada 2"><g id="Camada_1-2" data-name="Camada 1"><path d="M189.4,0C99.29,0,0,67.06,0,137.3c0,.67,0,1.33,0,2,0,1,.05,2,.1,3a.73.73,0,0,0,0,.17c0,.56.06,1.12.1,1.67a67.79,67.79,0,0,0,1.45,10.13q.13.65.31,1.31l.15.62c.23.88.49,1.76.76,2.62.12.38.24.78.38,1.17.08.23.15.45.24.68s.24.69.38,1a37.73,37.73,0,0,0,7.54,12.24l.82.85c.27.28.55.55.85.82.54.5,1.09,1,1.67,1.47.33.28.69.56,1.05.83s.63.47.95.71.65.47,1,.69c.65.45,1.33.87,2,1.29h0c.33.21.68.4,1,.59s.72.4,1.09.58l1.12.55q.33.17.65.31l1,.45A55.53,55.53,0,0,0,33,185.85l1.36.33q.69.17,1.38.31l1.22.26a91.44,91.44,0,0,0,10.67,1.4l1.56.12c1.59.1,3.22.17,4.87.21,1.21,0,2.44.05,3.68.05a11.6,11.6,0,0,0-1.37-3.74l0-.09-.4-.78c-.55-1.13-1.19-2.46-1.83-4.12l-.35-.91c-.28-.78-.56-1.63-.85-2.56-.1-.37-.22-.76-.32-1.15a61.15,61.15,0,0,1-1.32-6.32c-.08-.51-.15-1-.22-1.56l-.12-.87c0-.28-.08-.58-.1-.88-.26-2.27-.45-4.79-.55-7.62,0-.5,0-1-.05-1.55s0-.85,0-1.28,0-.81,0-1.22,0-.82,0-1.24c0-80.27,58.28-128.32,145.7-128.32,42.1,0,59.36,25.87,59.36,55.45,0,41.19-31.83,92.41-76.63,92.41h-4.86l.69-3.12L208,16.85l-16.07,2.78-55.57-.32-10.22,6.07,2.11,1.25L47.49,396h77.7L168,198.53l.35-1.56,1.47-.35.38-.08q.65-.15,1.31-.27t1.15-.23l1.88-.32c.59-.09,1.17-.18,1.74-.24l1.64-.21c.6-.06,1.21-.13,1.78-.17s1-.09,1.53-.12l.85-.05c1.23-.06,2.41-.09,3.53-.09,24.28,0,32.37,14.79,32.37,35.91,0,40.14-28.06,104-28.06,138.88,0,17.42,7,35.38,42.1,35.38l2.24,0,1.42-.05c1.49,0,3-.13,4.62-.24l2.21-.18c1.13-.1,2.31-.22,3.5-.36l1.09-.13c1-.12,2.05-.24,3.12-.4l2.32-.33c.83-.12,1.69-.26,2.55-.4l1.68-.28,1.83-.32c.82-.14,1.67-.29,2.51-.47l1.51-.28,2.19-.45q5.06-1,10.55-2.4l3.63-.92q3.15-.81,6.45-1.73a27.36,27.36,0,0,1-5.67-2.87c-.46-.31-.91-.62-1.36-1-.26-.18-.5-.37-.74-.58a8.32,8.32,0,0,1-.65-.55,6.42,6.42,0,0,1-.65-.56c-.55-.47-1.08-1-1.58-1.51-.26-.26-.51-.53-.74-.79-.47-.53-.94-1.06-1.37-1.63-.26-.31-.49-.63-.72-.95a10.68,10.68,0,0,1-.64-.91,32.58,32.58,0,0,1-1.78-2.87c-.19-.33-.37-.67-.54-1s-.32-.62-.46-.92a37.76,37.76,0,0,1-2.17-5.53c-.24-.76-.45-1.51-.64-2.28s-.42-1.82-.59-2.74q-.15-.77-.27-1.58c-.08-.54-.14-1.09-.21-1.64s-.09-.82-.12-1.23l-.08-1c0-.41,0-.81-.05-1.23s0-1,0-1.47c0-32.74,26.45-90.29,26.45-133.6,0-.94,0-1.86,0-2.78,0-1.37-.12-2.73-.22-4.06q-.08-1.12-.19-2.19c-.06-.59-.13-1.18-.21-1.76q-.06-.56-.15-1.12-.1-.75-.23-1.5c-.1-.65-.22-1.31-.36-1.95,0-.17-.05-.32-.09-.47-.08-.4-.17-.79-.26-1.19s-.14-.64-.22-.95-.22-.87-.35-1.31a4.77,4.77,0,0,0-.15-.58c-.12-.42-.23-.83-.37-1.26a6.68,6.68,0,0,0-.26-.82c-.17-.56-.36-1.12-.56-1.68s-.4-1.09-.62-1.63a45.41,45.41,0,0,0-2.95-6q-.42-.73-.88-1.46c-.21-.32-.42-.65-.64-1s-.32-.47-.49-.71-.4-.56-.6-.83c-.33-.45-.67-.88-1-1.31-.56-.69-1.15-1.38-1.77-2.05-.41-.45-.82-.87-1.24-1.29s-1-1-1.51-1.44q-.54-.5-1.12-1c-.17-.15-.33-.28-.5-.42a43.59,43.59,0,0,0-5.13-3.63c-.41-.26-.83-.51-1.27-.76-.73-.42-1.49-.83-2.26-1.22s-1.28-.64-1.95-.95l-.06,0q-1-.48-2.12-.92l-.08,0c-.65-.26-1.31-.53-2-.77a.38.38,0,0,0-.13-.05c-1.68-.63-3.44-1.19-5.28-1.72,1.63-.92,3.24-1.88,4.81-2.87a2.71,2.71,0,0,0,.32-.21c.85-.53,1.68-1.08,2.5-1.63s1.79-1.21,2.67-1.82c.41-.29.82-.58,1.23-.88.63-.44,1.24-.9,1.85-1.36l1.13-.85q1.35-1,2.62-2.08c.71-.56,1.41-1.14,2.09-1.73l0,0c.41-.35.81-.69,1.21-1.05l.19-.17q.92-.79,1.81-1.62c.81-.73,1.6-1.47,2.37-2.22.95-.91,1.87-1.83,2.78-2.77.65-.67,1.29-1.35,1.92-2l1.06-1.15c.45-.49.88-1,1.29-1.46.21-.22.38-.44.58-.65.81-.92,1.58-1.86,2.35-2.79s1.32-1.65,2-2.5,1.38-1.82,2.05-2.76c.46-.64.92-1.28,1.37-1.94L294,138l.79-1.18q1.5-2.23,2.85-4.5.38-.62.73-1.23c.65-1.1,1.27-2.19,1.86-3.29l.81-1.53q1.25-2.4,2.35-4.81.65-1.44,1.27-2.88c1.14-2.74,2.17-5.49,3-8.24.13-.36.24-.73.35-1.09.17-.53.32-1.05.46-1.56s.29-1,.44-1.56a86.2,86.2,0,0,0,2.59-14c.05-.51.1-1,.14-1.54s.08-1,.1-1.53.06-1,.08-1.53,0-.86,0-1.28c0-.59,0-1.17,0-1.76C311.9,41.19,274.67,0,189.4,0Z" fill="#fff"/><path d="M125.19,396l-8.91,42.32a2.57,2.57,0,0,1-4.7.79L86.93,398.34a2.56,2.56,0,0,0-3.63-.79L46.24,422.42a2.57,2.57,0,0,1-3.94-2.68L47.49,396Z" fill="#fff"/><path d="M297.53,329.24c1.79-56.71,29.59-155.52,112.65-152.89,37.42,1.18,57.93,17,56.95,48.29-1.72,54.48-62.5,83.85-106,87.84a157.16,157.16,0,0,0-2,19.16c-.93,29.47,13.85,38.88,31.64,39.44,21.45.68,40.09-10.8,59.32-26.73-1.53,48.23-41.63,59.48-87.26,58C319,401,296.31,367.64,297.53,329.24Zm127-128.75c-25.56-.81-48.15,49-59.06,90.66,42,.88,72.78-33.46,74.24-65.15C440,216.63,438.18,200.92,424.49,200.49Z" fill="#fff"/><path d="M590.93,171.23l-.2,6.44c-2.4,75.85,31.19,99,29.49,152.79-1.35,42.75-30.25,79.11-93.67,77.1-54-1.71-79.85-17.71-78.43-62.76,1.15-36.32,18.73-56.93,37.57-57.71,16.92-29.38,27.59-69.53,36.69-104.22ZM489,344.25a38.2,38.2,0,0,1-16.78-4.67c-.86,27.12,13.8,39.55,38.69,40.34,16,.51,39.6-18.07,40.72-53.47.9-28.5-19.47-53.54-18.59-111-8.23,22.29-15.74,51.5-26.8,74.16,11.16,4,15.12,12.44,14.69,26.23C520,333.27,505.49,344.77,489,344.25Z" fill="#fff"/><path d="M598.76,332.5c2-61.72,32.2-169.24,122.59-166.38,40.72,1.29,63,18.53,62,52.55-1.88,59.29-68,91.25-115.38,95.59a170.91,170.91,0,0,0-2.15,20.85c-1,32.07,15.07,42.31,34.43,42.93,23.34.74,43.62-11.75,64.55-29.09-1.66,52.49-45.3,64.73-95,63.15C622.13,410.59,597.43,374.29,598.76,332.5ZM736.92,192.39c-27.81-.88-52.39,53.31-64.27,98.66,45.71,1,79.2-36.41,80.79-70.9C753.76,209.95,751.82,192.86,736.92,192.39Z" fill="#fff"/><path d="M887.38,162.6,880.81,188c19.3-13.75,40.6-24.35,62.58-23.66,23.56.75,37.27,14.51,36.65,34-.57,17.93-14.87,39.52-40.53,38.71-29.31-.93-13.59-34.27-29.29-34.77s-24.26,4.87-36.64,15.25L823.79,417l-75.38-2.39L812,160.22Z" fill="#fff"/><path d="M1166.51,201.68c-2.59,82-49.56,224.57-158,221.14-41.34-1.31-66-20-64.76-59.37a125.36,125.36,0,0,1,3.53-26.71l44.31-177.4,77.31,2.45-44.31,177.4c-1.84,7.3-3.12,13.58-3.3,19.35-.32,10,4.3,17,19.87,17.46,52.62,1.67,92.23-112.25,94-169.52a42.7,42.7,0,0,1-11.34,1.74c-15.57-.49-22.09-15.42-21.62-30.13.35-11,13.7-25.34,31.42-24.78C1156.73,154,1167.38,174.36,1166.51,201.68Z" fill="#fff"/><path d="M1376.49,344a77.39,77.39,0,0,0-3.49,19.11c-.38,11.86,4,21,20.12,21.56,4,.13,10.39.33,15.06-1.22-17.7,48.06-42,50.68-61.67,50.06-33.48-1.06-50.83-18.57-55.78-44.73-18,22.61-44.75,44.94-80,43.83-55.41-1.75-70.35-40.67-69.3-74,3.07-97.14,42.54-212.36,158-208.7,13.85.44,28.1,6.54,38.22,15.34l3.93-14.57,82.54,2.61ZM1331,192.75a43.7,43.7,0,0,0-28-11.06c-43.29-1.37-80.76,87.34-83.19,164.15-1.07,33.89,17.78,40.7,32.21,41.16,13.27.42,26.38-12.17,38.43-27.62a69.12,69.12,0,0,1,3.46-18Z" fill="#fff"/><path d="M1493.08,343.49c-2,7-3.45,13.5-3.66,20-.39,12.41,4.14,22,21.05,22.56,4.23.13,10.87.34,15.76-1.28-18.52,50.29-44,53-64.54,52.39-42.88-1.36-60.73-29.73-59.55-67a127.44,127.44,0,0,1,4.56-29.44l49.85-199.58,86.37,2.73ZM1502.58,47c18.32-13.28,90.94-35.66,99.31-24.7s-34,76.19-52.34,89.47-43.23,9.59-56.22-8.34A40.38,40.38,0,0,1,1502.58,47Z" fill="#fff"/></g></g></svg>