<svg xmlns="http://www.w3.org/2000/svg" viewBox="0 0 581.62 512"><title>Ativo 1</title><g id="Camada_2" data-name="Camada 2"><g id="Camada_1-2" data-name="Camada 1"><rect x="34.81" width="512" height="512" rx="90" ry="90" fill="#2d9fb7"/><path d="M317,83.73c-70.5,0-148.18,52.46-148.18,107.41,0,.53,0,1.05,0,1.56,0,.8,0,1.59.08,2.37a.57.57,0,0,0,0,.13c0,.44,0,.87.08,1.3a54.25,54.25,0,0,0,1.14,7.92c.07.34.15.68.24,1l.12.48c.18.69.38,1.37.59,2,.09.3.19.61.3.92s.12.35.19.53.19.54.3.8a29.62,29.62,0,0,0,5.9,9.58l.64.66c.21.22.43.43.66.64.43.39.86.78,1.31,1.15.26.23.54.45.82.66s.49.37.74.55.51.37.77.54c.52.35,1,.68,1.6,1h0c.26.16.53.31.81.46l.85.46.88.43q.25.14.51.24l.78.35a43.56,43.56,0,0,0,6.45,2.16l1.06.27c.36.09.72.17,1.09.24l1,.2a71.68,71.68,0,0,0,8.34,1.09l1.23.09c1.24.08,2.51.13,3.81.16.94,0,1.9,0,2.88,0a9.22,9.22,0,0,0-1.08-2.93l0-.07-.31-.61c-.43-.88-.93-1.93-1.43-3.22l-.27-.71q-.33-.91-.66-2c-.09-.29-.18-.59-.26-.9a48,48,0,0,1-1-4.94c-.06-.41-.12-.81-.17-1.23l-.09-.68c0-.22-.06-.45-.08-.69-.2-1.78-.35-3.75-.43-6,0-.39,0-.8,0-1.21s0-.66,0-1,0-.63,0-.95,0-.64,0-1c0-44,22.38-75.61,59.3-90.6L206,393.57l-4,18.53a2,2,0,0,0,3.08,2.1l29-19.46a2,2,0,0,1,2.84.62l19.28,31.93a2,2,0,0,0,3.68-.62l7-33.1L300.26,239l.27-1.22,1.15-.27.3-.06c.34-.08.69-.15,1-.21s.6-.13.9-.18l1.47-.25c.46-.07.92-.14,1.37-.19l1.28-.16c.47-.05.94-.1,1.39-.13l1.2-.09.66,0c1-.05,1.89-.07,2.76-.07,19,0,25.32,11.57,25.32,28.09,0,31.4-21.95,81.38-21.95,108.64,0,13.63,5.49,27.69,32.93,27.69l1.76,0,1.11,0c1.17,0,2.37-.1,3.61-.2l1.73-.14c.88-.08,1.8-.17,2.74-.28l.85-.1c.79-.09,1.6-.19,2.44-.31l1.81-.26c.65-.09,1.33-.2,2-.31l1.31-.22,1.44-.25c.64-.11,1.3-.23,2-.37l1.18-.22,1.72-.35q4-.81,8.25-1.88l2.84-.72q2.47-.63,5-1.35a22,22,0,0,1-4.44-2.25c-.36-.24-.71-.48-1.06-.75s-.39-.29-.58-.45-.34-.28-.51-.44a5,5,0,0,1-.51-.44,15.42,15.42,0,0,1-1.24-1.18c-.2-.2-.4-.41-.58-.62-.37-.41-.73-.84-1.07-1.28-.2-.24-.38-.49-.56-.74a8.45,8.45,0,0,1-.51-.71,24.21,24.21,0,0,1-1.39-2.25c-.15-.26-.29-.52-.42-.79s-.25-.48-.36-.72a30.06,30.06,0,0,1-1.7-4.32c-.19-.6-.35-1.19-.5-1.79s-.33-1.42-.46-2.15q-.12-.6-.21-1.23c-.06-.42-.11-.85-.16-1.28s-.07-.65-.09-1l-.06-.8c0-.32,0-.63,0-1s0-.76,0-1.15c0-25.62,20.69-70.64,20.69-104.52,0-.73,0-1.45,0-2.18,0-1.07-.09-2.13-.17-3.18q-.06-.87-.15-1.71c0-.46-.1-.92-.16-1.37s-.07-.59-.12-.88-.11-.78-.18-1.17-.17-1-.28-1.52a3.7,3.7,0,0,0-.07-.38c-.06-.31-.13-.62-.2-.93l-.18-.74q-.12-.51-.27-1a4.45,4.45,0,0,0-.12-.46c-.09-.33-.18-.65-.29-1a5.24,5.24,0,0,0-.2-.64c-.13-.44-.28-.87-.44-1.31s-.31-.86-.48-1.28a34.38,34.38,0,0,0-2.31-4.72q-.33-.57-.69-1.14c-.16-.26-.33-.52-.5-.77s-.25-.37-.38-.55-.31-.44-.47-.65-.52-.69-.8-1c-.44-.55-.9-1.09-1.38-1.61-.32-.35-.64-.68-1-1s-.77-.75-1.19-1.12-.57-.52-.87-.76c-.13-.12-.26-.22-.39-.33a35.4,35.4,0,0,0-4-2.84c-.32-.2-.65-.4-1-.59-.58-.33-1.17-.65-1.77-.95s-1-.5-1.52-.74l0,0c-.55-.25-1.1-.49-1.66-.72l-.06,0c-.51-.21-1-.42-1.55-.61l-.1,0c-1.32-.49-2.69-.93-4.14-1.34,1.28-.72,2.54-1.47,3.76-2.25a1.64,1.64,0,0,0,.26-.16c.66-.41,1.31-.84,2-1.27s1.41-.94,2.09-1.43c.32-.23.64-.45,1-.69.49-.34,1-.7,1.44-1.06l.89-.66c.7-.53,1.38-1.08,2-1.63s1.11-.89,1.64-1.35l0,0,.94-.82.15-.13,1.42-1.27c.63-.57,1.25-1.15,1.85-1.73s1.46-1.44,2.18-2.17c.51-.52,1-1,1.5-1.58l.83-.91c.35-.38.7-.76,1-1.14.16-.17.3-.34.45-.51.63-.72,1.23-1.46,1.83-2.19s1-1.29,1.54-2,1.08-1.43,1.6-2.16l1.08-1.51.14-.2.62-.93c.78-1.16,1.52-2.33,2.22-3.52.21-.32.4-.64.58-1,.51-.86,1-1.72,1.45-2.58l.63-1.19c.65-1.26,1.27-2.51,1.84-3.76.34-.75.67-1.51,1-2.26.89-2.15,1.7-4.29,2.38-6.45.1-.28.19-.57.27-.85s.25-.82.36-1.22.23-.82.34-1.23a67.6,67.6,0,0,0,2-10.93c0-.4.08-.8.11-1.2s.06-.81.08-1.2,0-.8.06-1.19,0-.67,0-1,0-.92,0-1.38C412.82,116,383.69,83.73,317,83.73ZM308.54,218.4h-3.8l.54-2.43,24.84-112.79c27.09,3.06,38.37,21.78,38.37,42.93C368.49,178.34,343.58,218.4,308.54,218.4Z" fill="#fff"/><line x1="581.62" y1="85.19" y2="85.19" fill="none"/></g></g></svg>